<svg width="1563" height="557" viewBox="0 0 1563 557" fill="none" xmlns="http://www.w3.org/2000/svg">
<g clip-path="url(#clip0_2432_147)">
<mask id="mask0_2432_147" style="mask-type:luminance" maskUnits="userSpaceOnUse" x="-361" y="0" width="1906" height="578">
<path d="M1544.11 0H-361V577.328H1544.11V0Z" fill="white"/>
</mask>
<g mask="url(#mask0_2432_147)">
<path d="M1544.11 7.41406H-361V584.743H1544.11V7.41406Z" fill="#3EC583"/>
<path d="M1012.95 605.221C1039.43 605.221 1060.89 583.682 1060.89 557.111C1060.89 530.54 1039.43 509 1012.95 509C986.467 509 965 530.54 965 557.111C965 583.682 986.467 605.221 1012.95 605.221Z" fill="#102F4F" fill-opacity="0.06"/>
<path d="M304.947 131.221C331.428 131.221 352.895 109.682 352.895 83.1107C352.895 56.5399 331.428 35 304.947 35C278.467 35 257 56.5399 257 83.1107C257 109.682 278.467 131.221 304.947 131.221Z" stroke="#787878" stroke-opacity="0.1" stroke-width="1.18"/>
<path d="M386.751 328.671L373.671 318.78L380.409 303.808L367.329 293.916L374.067 278.944L361 269.065L367.738 254.093M396.66 326.118L383.58 316.24L390.318 301.267L377.238 291.376L383.976 276.404L370.909 266.525L377.647 251.553M406.569 323.578L393.489 313.686L400.227 298.714L387.147 288.836L393.886 273.864L380.818 263.972L387.556 249" stroke="#102F4F" stroke-opacity="0.08"/>
<path d="M186 484.922L301.918 631.897L335.058 467L186 484.922Z" fill="#102F4F" fill-opacity="0.06"/>
<path d="M877.94 392.472C925.956 392.472 964.88 353.415 964.88 305.236C964.88 257.057 925.956 218 877.94 218C829.924 218 791 257.057 791 305.236C791 353.415 829.924 392.472 877.94 392.472Z" stroke="#102F4F" stroke-opacity="0.09" stroke-width="1.41" stroke-dasharray="4 4"/>
<path d="M1492.84 446.423C1491.93 446.64 1491.06 447.036 1490.3 447.589C1489.54 448.141 1488.89 448.838 1488.4 449.641C1487.9 450.444 1487.57 451.337 1487.42 452.268C1487.27 453.2 1487.31 454.152 1487.52 455.07C1487.74 455.988 1488.13 456.855 1488.69 457.62C1489.24 458.385 1489.93 459.034 1490.73 459.53C1491.53 460.025 1492.42 460.358 1493.35 460.508C1494.28 460.659 1495.23 460.625 1496.14 460.407C1497.06 460.19 1497.92 459.794 1498.68 459.242C1499.44 458.689 1500.09 457.992 1500.59 457.189C1501.08 456.386 1501.41 455.493 1501.56 454.562C1501.71 453.63 1501.68 452.678 1501.46 451.76C1501.24 450.842 1500.85 449.976 1500.3 449.21C1499.75 448.445 1499.05 447.796 1498.25 447.301C1497.45 446.805 1496.56 446.473 1495.63 446.322C1494.71 446.171 1493.76 446.206 1492.84 446.423ZM1497.56 466.399C1496.65 466.616 1495.78 467.012 1495.02 467.564C1494.26 468.116 1493.61 468.814 1493.12 469.617C1492.62 470.42 1492.29 471.312 1492.14 472.244C1491.99 473.175 1492.03 474.127 1492.24 475.046C1492.46 475.964 1492.85 476.83 1493.4 477.595C1493.95 478.361 1494.65 479.01 1495.45 479.505C1496.25 480.001 1497.14 480.333 1498.07 480.484C1499 480.634 1499.94 480.6 1500.86 480.383C1501.77 480.165 1502.64 479.769 1503.4 479.217C1504.16 478.665 1504.81 477.968 1505.3 477.165C1505.8 476.362 1506.13 475.469 1506.28 474.537C1506.43 473.606 1506.39 472.654 1506.18 471.736C1505.96 470.817 1505.57 469.951 1505.02 469.186C1504.47 468.421 1503.77 467.772 1502.97 467.276C1502.17 466.781 1501.28 466.448 1500.35 466.298C1499.42 466.147 1498.48 466.181 1497.56 466.399ZM1502.27 486.374C1501.35 486.592 1500.49 486.988 1499.72 487.54C1498.96 488.092 1498.32 488.789 1497.82 489.592C1497.33 490.395 1497 491.288 1496.85 492.22C1496.7 493.151 1496.73 494.103 1496.95 495.021C1497.16 495.939 1497.56 496.806 1498.11 497.571C1498.66 498.336 1499.35 498.985 1500.15 499.481C1500.95 499.976 1501.84 500.309 1502.77 500.459C1503.7 500.61 1504.65 500.576 1505.56 500.358C1506.48 500.141 1507.34 499.745 1508.11 499.193C1508.87 498.641 1509.51 497.943 1510.01 497.14C1510.5 496.337 1510.83 495.444 1510.98 494.513C1511.13 493.582 1511.1 492.629 1510.88 491.711C1510.67 490.793 1510.27 489.927 1509.72 489.161C1509.17 488.396 1508.48 487.747 1507.68 487.252C1506.88 486.756 1505.99 486.424 1505.06 486.273C1504.13 486.122 1503.18 486.157 1502.27 486.374ZM1506.98 506.35C1506.04 506.536 1505.14 506.911 1504.34 507.454C1503.54 507.997 1502.86 508.696 1502.34 509.509C1501.82 510.322 1501.47 511.233 1501.3 512.186C1501.14 513.139 1501.17 514.115 1501.39 515.056C1501.62 515.997 1502.03 516.884 1502.6 517.662C1503.17 518.441 1503.89 519.096 1504.72 519.587C1505.55 520.079 1506.47 520.397 1507.43 520.523C1508.38 520.649 1509.35 520.581 1510.28 520.321C1511.23 520.135 1512.13 519.759 1512.92 519.216C1513.72 518.674 1514.4 517.975 1514.92 517.162C1515.45 516.349 1515.8 515.438 1515.96 514.485C1516.13 513.532 1516.09 512.555 1515.87 511.614C1515.65 510.673 1515.24 509.787 1514.67 509.008C1514.1 508.23 1513.38 507.575 1512.55 507.084C1511.72 506.592 1510.79 506.274 1509.84 506.148C1508.88 506.021 1507.91 506.09 1506.98 506.35ZM1463.51 411.193C1462.6 411.411 1461.73 411.807 1460.97 412.359C1460.21 412.911 1459.56 413.608 1459.07 414.411C1458.57 415.214 1458.24 416.107 1458.09 417.039C1457.94 417.97 1457.98 418.922 1458.19 419.84C1458.41 420.758 1458.8 421.625 1459.35 422.39C1459.9 423.155 1460.6 423.804 1461.4 424.3C1462.2 424.795 1463.09 425.128 1464.02 425.278C1464.95 425.429 1465.9 425.395 1466.81 425.177C1467.73 424.96 1468.59 424.564 1469.35 424.012C1470.11 423.46 1470.76 422.762 1471.25 421.959C1471.75 421.156 1472.08 420.263 1472.23 419.332C1472.38 418.401 1472.35 417.448 1472.13 416.53C1471.91 415.612 1471.52 414.746 1470.97 413.981C1470.42 413.215 1469.72 412.566 1468.92 412.071C1468.12 411.575 1467.23 411.243 1466.3 411.092C1465.38 410.942 1464.43 410.976 1463.51 411.193ZM1468.22 431.169C1467.3 431.386 1466.44 431.782 1465.68 432.334C1464.91 432.887 1464.27 433.584 1463.77 434.387C1463.28 435.19 1462.95 436.083 1462.8 437.014C1462.65 437.946 1462.68 438.898 1462.9 439.816C1463.11 440.734 1463.51 441.6 1464.06 442.366C1464.61 443.131 1465.3 443.78 1466.11 444.275C1466.91 444.771 1467.8 445.103 1468.72 445.254C1469.65 445.405 1470.6 445.37 1471.52 445.153C1472.43 444.936 1473.29 444.54 1474.06 443.987C1474.82 443.435 1475.47 442.738 1475.96 441.935C1476.45 441.132 1476.79 440.239 1476.94 439.308C1477.09 438.376 1477.05 437.424 1476.83 436.506C1476.62 435.588 1476.22 434.721 1475.67 433.956C1475.12 433.191 1474.43 432.542 1473.63 432.046C1472.83 431.551 1471.94 431.218 1471.01 431.068C1470.08 430.917 1469.13 430.951 1468.22 431.169ZM1472.93 451.144C1472.02 451.362 1471.16 451.758 1470.39 452.31C1469.63 452.862 1468.98 453.56 1468.49 454.363C1468 455.165 1467.67 456.058 1467.52 456.99C1467.36 457.921 1467.4 458.873 1467.62 459.791C1467.83 460.71 1468.23 461.576 1468.78 462.341C1469.33 463.106 1470.02 463.755 1470.82 464.251C1471.62 464.746 1472.51 465.079 1473.44 465.23C1474.37 465.38 1475.32 465.346 1476.23 465.129C1477.15 464.911 1478.01 464.515 1478.77 463.963C1479.54 463.411 1480.18 462.713 1480.68 461.91C1481.17 461.107 1481.5 460.215 1481.65 459.283C1481.8 458.352 1481.77 457.4 1481.55 456.481C1481.34 455.563 1480.94 454.697 1480.39 453.932C1479.84 453.166 1479.15 452.518 1478.35 452.022C1477.55 451.526 1476.66 451.194 1475.73 451.043C1474.8 450.893 1473.85 450.927 1472.93 451.144ZM1477.65 471.12C1476.74 471.337 1475.87 471.733 1475.11 472.285C1474.35 472.838 1473.7 473.535 1473.21 474.338C1472.21 475.96 1471.9 477.913 1472.33 479.767C1472.77 481.621 1473.92 483.226 1475.54 484.226C1477.16 485.227 1479.1 485.543 1480.95 485.104C1482.8 484.665 1484.4 483.508 1485.4 481.886C1486.39 480.264 1486.71 478.311 1486.27 476.457C1485.83 474.603 1484.68 472.998 1483.06 471.998C1481.45 470.997 1479.5 470.681 1477.65 471.12Z" fill="#102F4F" fill-opacity="0.08"/>
<path d="M1153.57 592.891L1253.67 654.37L1285.76 541.214L1153.57 592.891Z" fill="#102F4F" fill-opacity="0.14"/>
<path d="M1450.49 288.759C1502.36 288.759 1544.4 246.568 1544.4 194.523C1544.4 142.478 1502.36 100.287 1450.49 100.287C1398.62 100.287 1356.57 142.478 1356.57 194.523C1356.57 246.568 1398.62 288.759 1450.49 288.759Z" stroke="#102F4F" stroke-opacity="0.14" stroke-width="2.23" stroke-dasharray="4 4"/>
<path d="M1012.53 96.2214C1039.01 96.2214 1060.47 74.6815 1060.47 48.1107C1060.47 21.5399 1039.01 0 1012.53 0C986.045 0 964.578 21.5399 964.578 48.1107C964.578 74.6815 986.045 96.2214 1012.53 96.2214Z" stroke="#666666" stroke-opacity="0.1" stroke-width="2.36" stroke-dasharray="3 2"/>
<path d="M447.351 146.73C447.625 147.633 448.074 148.473 448.673 149.202C449.271 149.931 450.006 150.534 450.836 150.978C451.667 151.422 452.576 151.697 453.513 151.788C454.449 151.879 455.395 151.785 456.295 151.509C457.195 151.234 458.032 150.783 458.758 150.183C459.485 149.583 460.086 148.845 460.528 148.012C460.971 147.178 461.245 146.266 461.336 145.326C461.426 144.386 461.332 143.438 461.057 142.535C460.783 141.632 460.334 140.792 459.736 140.063C459.138 139.334 458.402 138.73 457.572 138.287C456.741 137.843 455.832 137.568 454.895 137.477C453.959 137.385 453.014 137.48 452.114 137.756C451.214 138.031 450.376 138.482 449.65 139.082C448.924 139.682 448.322 140.42 447.88 141.253C447.438 142.087 447.163 142.999 447.072 143.939C446.982 144.879 447.076 145.827 447.351 146.73ZM466.926 140.752C467.187 141.67 467.628 142.526 468.222 143.272C468.817 144.017 469.554 144.636 470.39 145.092C471.225 145.548 472.143 145.833 473.09 145.929C474.036 146.025 474.993 145.931 475.903 145.653C476.813 145.374 477.658 144.916 478.39 144.305C479.121 143.695 479.724 142.944 480.163 142.098C480.603 141.251 480.869 140.324 480.948 139.373C481.026 138.422 480.915 137.464 480.62 136.556C480.359 135.638 479.918 134.782 479.324 134.036C478.729 133.291 477.992 132.672 477.157 132.216C476.321 131.76 475.403 131.475 474.456 131.379C473.51 131.282 472.553 131.377 471.643 131.655C470.733 131.934 469.888 132.392 469.156 133.002C468.425 133.613 467.822 134.363 467.383 135.21C466.944 136.057 466.677 136.983 466.599 137.935C466.52 138.886 466.632 139.844 466.926 140.752ZM486.502 134.773C486.753 135.7 487.188 136.568 487.78 137.323C488.372 138.079 489.109 138.708 489.948 139.173C490.786 139.638 491.71 139.929 492.662 140.029C493.615 140.129 494.578 140.037 495.495 139.757C496.411 139.477 497.262 139.015 497.998 138.399C498.733 137.783 499.338 137.026 499.776 136.171C500.215 135.316 500.478 134.382 500.55 133.423C500.622 132.465 500.501 131.502 500.195 130.591C499.943 129.663 499.508 128.796 498.916 128.04C498.325 127.284 497.587 126.655 496.749 126.191C495.91 125.726 494.987 125.435 494.035 125.335C493.082 125.234 492.119 125.327 491.202 125.607C490.286 125.887 489.434 126.348 488.699 126.964C487.963 127.58 487.359 128.338 486.92 129.193C486.482 130.047 486.219 130.982 486.147 131.94C486.075 132.899 486.196 133.862 486.502 134.773ZM506.064 128.794C506.338 129.697 506.786 130.538 507.383 131.267C507.98 131.996 508.715 132.6 509.545 133.044C510.375 133.489 511.284 133.765 512.22 133.857C513.156 133.949 514.101 133.854 515.001 133.58C515.901 133.305 516.739 132.855 517.465 132.256C518.192 131.657 518.794 130.92 519.237 130.087C519.68 129.254 519.955 128.342 520.046 127.403C520.138 126.463 520.044 125.515 519.771 124.612C519.497 123.709 519.049 122.869 518.451 122.14C517.854 121.41 517.12 120.806 516.29 120.362C515.46 119.918 514.551 119.642 513.615 119.55C512.678 119.458 511.733 119.552 510.833 119.827C509.933 120.101 509.096 120.551 508.369 121.15C507.642 121.75 507.04 122.487 506.598 123.319C506.155 124.152 505.88 125.064 505.788 126.004C505.697 126.943 505.79 127.891 506.064 128.794Z" stroke="#102F4F" stroke-opacity="0.14" stroke-dasharray="2 2"/>
</g>
</g>
<defs>
<clipPath id="clip0_2432_147">
<rect width="1563" height="557" fill="white"/>
</clipPath>
</defs>
</svg>
